<?xml version="1.0" encoding="utf-8"?>
<!-- Generator: Adobe Illustrator 25.0.0, SVG Export Plug-In . SVG Version: 6.00 Build 0)  -->
<svg version="1.1" id="Layer_1" xmlns="http://www.w3.org/2000/svg" xmlns:xlink="http://www.w3.org/1999/xlink" x="0px" y="0px"
	 viewBox="0 0 100 100" style="enable-background:new 0 0 100 100;" xml:space="preserve">
<style type="text/css">
	.st0{fill:#FFFFFF;}
</style>
<g>
	<path class="st0" d="M49.41,48.29c6.17,0,11.51-2.21,15.88-6.58c4.36-4.36,6.58-9.71,6.58-15.88s-2.21-11.51-6.58-15.88
		c-4.37-4.36-9.71-6.58-15.88-6.58S37.9,5.58,33.53,9.95s-6.58,9.71-6.58,15.88s2.21,11.51,6.58,15.88S43.24,48.29,49.41,48.29z
		 M37.4,13.83c3.35-3.35,7.28-4.98,12.01-4.98s8.66,1.63,12.01,4.98c3.35,3.35,4.98,7.28,4.98,12.01s-1.63,8.66-4.98,12.01
		c-3.35,3.35-7.28,4.98-12.01,4.98s-8.66-1.63-12.01-4.98c-3.35-3.35-4.98-7.28-4.98-12.01C32.42,21.11,34.05,17.18,37.4,13.83z"/>
	<path class="st0" d="M88.7,75.07c-0.13-1.82-0.38-3.8-0.76-5.89c-0.38-2.11-0.87-4.1-1.45-5.92c-0.6-1.88-1.42-3.74-2.44-5.52
		c-1.05-1.85-2.29-3.46-3.67-4.78c-1.45-1.39-3.22-2.5-5.27-3.31c-2.04-0.81-4.31-1.22-6.73-1.22c-0.95,0-1.87,0.39-3.65,1.55
		c-1.09,0.71-2.37,1.54-3.8,2.45c-1.22,0.78-2.88,1.51-4.92,2.17C54.02,55.23,52,55.56,50,55.56s-4.02-0.33-6.02-0.97
		c-2.04-0.66-3.7-1.39-4.92-2.17c-1.41-0.9-2.69-1.73-3.81-2.45c-1.78-1.16-2.7-1.55-3.65-1.55c-2.42,0-4.69,0.41-6.73,1.22
		c-2.05,0.81-3.82,1.93-5.27,3.31c-1.39,1.33-2.62,2.94-3.67,4.78c-1.01,1.78-1.83,3.64-2.43,5.52c-0.58,1.82-1.07,3.81-1.45,5.92
		c-0.38,2.09-0.63,4.07-0.76,5.89c-0.12,1.78-0.19,3.63-0.19,5.51c0,4.87,1.55,8.81,4.6,11.71c3.01,2.87,7,4.32,11.85,4.32h44.89
		c4.85,0,8.83-1.45,11.85-4.32c3.05-2.9,4.6-6.84,4.6-11.71C88.89,78.7,88.83,76.85,88.7,75.07z M80.52,88.33
		c-1.99,1.89-4.63,2.82-8.08,2.82H27.56c-3.45,0-6.09-0.92-8.08-2.82c-1.95-1.86-2.9-4.4-2.9-7.75c0-1.75,0.06-3.47,0.17-5.13
		c0.11-1.62,0.34-3.41,0.68-5.31c0.34-1.87,0.76-3.63,1.27-5.22c0.49-1.53,1.16-3.04,1.98-4.49c0.79-1.39,1.7-2.58,2.7-3.54
		c0.94-0.9,2.12-1.63,3.51-2.18c1.29-0.51,2.73-0.79,4.3-0.83c0.19,0.1,0.53,0.3,1.08,0.66c1.12,0.73,2.42,1.57,3.85,2.48
		c1.61,1.03,3.69,1.96,6.17,2.76c2.54,0.82,5.13,1.24,7.7,1.24s5.16-0.42,7.7-1.24c2.49-0.8,4.56-1.73,6.18-2.76
		c1.46-0.94,2.72-1.75,3.85-2.48c0.55-0.36,0.89-0.55,1.08-0.66c1.57,0.04,3.02,0.32,4.3,0.83c1.39,0.55,2.57,1.29,3.51,2.18
		c1,0.96,1.91,2.15,2.7,3.54c0.83,1.45,1.49,2.97,1.98,4.49c0.51,1.59,0.94,3.35,1.27,5.22c0.34,1.9,0.57,3.69,0.68,5.31l0,0
		c0.12,1.65,0.17,3.37,0.17,5.13C83.43,83.94,82.48,86.48,80.52,88.33z"/>
</g>
</svg>
