<?xml version="1.0" encoding="utf-8"?>
<!-- Generator: Adobe Illustrator 25.0.0, SVG Export Plug-In . SVG Version: 6.00 Build 0)  -->
<svg version="1.1" id="Layer_1" xmlns="http://www.w3.org/2000/svg" xmlns:xlink="http://www.w3.org/1999/xlink" x="0px" y="0px"
	 viewBox="0 0 100 100" style="enable-background:new 0 0 100 100;" xml:space="preserve">
<style type="text/css">
	.st0{fill:#FFFFFF;}
</style>
<g>
	<g>
		<g>
			<path class="st0" d="M50,96.7C24.3,96.7,3.3,75.7,3.3,50S24.3,3.3,50,3.3c25.7,0,46.7,20.9,46.7,46.7S75.7,96.7,50,96.7z M50,7
				C26.3,7,7,26.3,7,50c0,23.7,19.3,43,43,43c23.7,0,43-19.3,43-43C93,26.3,73.7,7,50,7z"/>
		</g>
	</g>
	<path class="st0" d="M70.7,48.3H51.8V29.4c0-1-0.8-1.8-1.8-1.8s-1.8,0.8-1.8,1.8v18.9H29.3c-1,0-1.8,0.8-1.8,1.8s0.8,1.8,1.8,1.8
		h18.9v18.9c0,1,0.8,1.8,1.8,1.8s1.8-0.8,1.8-1.8V52h18.9c1,0,1.8-0.8,1.8-1.8S71.8,48.3,70.7,48.3z"/>
</g>
</svg>
