<?xml version="1.0" encoding="utf-8"?>
<!-- Generator: Adobe Illustrator 25.0.0, SVG Export Plug-In . SVG Version: 6.00 Build 0)  -->
<svg version="1.1" id="Layer_1" xmlns="http://www.w3.org/2000/svg" xmlns:xlink="http://www.w3.org/1999/xlink" x="0px" y="0px"
	 viewBox="0 0 100 100" style="enable-background:new 0 0 100 100;" xml:space="preserve">
<style type="text/css">
	.st0{fill:#9D9D9C;}
</style>
<g>
	<g>
		<g>
			<path class="st0" d="M50,96.7C24.3,96.7,3.3,75.7,3.3,50S24.3,3.3,50,3.3c25.7,0,46.7,20.9,46.7,46.7S75.7,96.7,50,96.7z M50,7
				C26.3,7,7,26.3,7,50c0,23.7,19.3,43,43,43c23.7,0,43-19.3,43-43C93,26.3,73.7,7,50,7z"/>
		</g>
	</g>
	<path class="st0" d="M50,3C24.1,3,3,24.1,3,50s21.1,47,47,47c25.9,0,47-21.1,47-47C96.9,24.1,75.9,3.1,50,3z M93.3,48.6l-7-8.4
		l2.3-9.9C91.4,36,93.1,42.3,93.3,48.6z M83.1,77.8c-4.8,5.7-10.9,10-17.8,12.7l6.2-10.8L83.1,77.8z M37.1,8.7
		c8.3-2.6,17.4-2.6,25.7,0L50,13.8L37.1,8.7z M40.5,63.7l-4-16.1L50,36.8l13.5,10.8l-4,16.1H40.5z M32,10.6L48.2,17v16.5L34.1,44.8
		l-16.8-5.6l-3.2-13.5C18.6,19.2,24.8,13.9,32,10.6z M16.4,42.8l16.5,5.5l4.2,16.8L29,76l-15.2-2.4c-3.8-5.8-6.2-12.5-6.8-19.5
		L16.4,42.8z M32,78.1l8-10.7h20l8.1,10.8l-7.9,13.9c-6.2,1.5-12.8,1.6-19.1,0.3L32,78.1z M65.9,44.8L51.8,33.6V17l16.1-6.4
		c7.3,3.3,13.5,8.6,18,15.2l-3.2,13.5L65.9,44.8z M67.1,48.3l16.5-5.5l9.5,11.4c-0.7,6.9-3,13.6-6.8,19.5L71.1,76l-8.2-10.9
		L67.1,48.3z M28.7,79.7l7.2,11.2c-7.4-2.6-13.9-7.1-19-13.1L28.7,79.7z M13.8,40.2l-7,8.4c0.2-6.4,1.8-12.7,4.7-18.3L13.8,40.2z"/>
</g>
</svg>
