<?xml version="1.0" encoding="utf-8"?>
<!-- Generator: Adobe Illustrator 25.0.0, SVG Export Plug-In . SVG Version: 6.00 Build 0)  -->
<svg version="1.1" id="Layer_1" xmlns="http://www.w3.org/2000/svg" xmlns:xlink="http://www.w3.org/1999/xlink" x="0px" y="0px"
	 viewBox="0 0 100 100" style="enable-background:new 0 0 100 100;" xml:space="preserve">
<style type="text/css">
	.st0{fill:#FFFFFF;}
</style>
<g>
	<g>
		<g>
			<path class="st0" d="M50,97C24.1,97,3,75.9,3,50S24.1,3,50,3c25.9,0,47,21.1,47,47S75.9,97,50,97z M50,6.8
				C26.2,6.8,6.8,26.1,6.8,50c0,23.8,19.4,43.2,43.2,43.2c23.8,0,43.2-19.4,43.2-43.2C93.2,26.1,73.8,6.8,50,6.8z"/>
		</g>
	</g>
	<path class="st0" d="M71.7,46.8l-0.1-0.2h-0.1L53.3,28.4c-1.7-1.7-4.8-1.7-6.5,0L28.4,46.8c-1.8,1.8-1.8,4.7,0,6.5
		c0.8,0.8,1.9,1.3,3,1.3c0,0,0.1,0,0.2,0h0.3v13.1c0,2.9,2.4,5.3,5.3,5.3h7.2c1,0,1.8-0.8,1.8-1.8V60.6c0-1,0.8-1.8,1.8-1.8h4.2
		c1,0,1.8,0.8,1.8,1.8v10.6c0,1,0.8,1.8,1.8,1.8h7.2c2.9,0,5.3-2.4,5.3-5.3v-13h0.2c1.2,0,2.4-0.5,3.3-1.3
		C73.4,51.5,73.4,48.6,71.7,46.8z M64.6,52.8v14.8c0,1-0.8,1.8-1.8,1.8h-5.4v-8.8c0-2.9-2.4-5.3-5.3-5.3h-4.2
		c-2.9,0-5.3,2.4-5.3,5.3v8.8h-5.4c-1,0-1.8-0.8-1.8-1.8V52.8c0-1-0.8-1.8-1.8-1.8h-2c-0.3,0-0.5-0.1-0.7-0.3
		c-0.4-0.4-0.4-1.1,0-1.5l18.4-18.4c0.4-0.4,1.1-0.4,1.5,0l18.4,18.4c0.4,0.4,0.4,1.1,0,1.5c-0.2,0.2-0.5,0.3-0.7,0.3h-2
		C65.4,51,64.6,51.8,64.6,52.8z"/>
</g>
</svg>
