<?xml version="1.0" encoding="utf-8"?>
<!-- Generator: Adobe Illustrator 25.0.0, SVG Export Plug-In . SVG Version: 6.00 Build 0)  -->
<svg version="1.1" id="Layer_1" xmlns="http://www.w3.org/2000/svg" xmlns:xlink="http://www.w3.org/1999/xlink" x="0px" y="0px"
	 viewBox="0 0 100 100" style="enable-background:new 0 0 100 100;" xml:space="preserve">
<style type="text/css">
	.st0{fill:#FFFFFF;}
</style>
<g>
	<path class="st0" d="M73.7,47.5c1.8-1.4,2.8-3.6,2.8-5.8c0-4.1-3.4-7.5-7.5-7.5c-4.1,0-7.5,3.4-7.5,7.5c0,2.3,1,4.4,2.8,5.8
		c-1.4,0.5-2.6,1.3-3.7,2.2c-1.6-1.3-3.3-2.3-5.2-2.9c2.5-1.8,4.1-4.7,4.1-7.8c0-5.2-4.2-9.5-9.4-9.5s-9.4,4.2-9.4,9.5
		c0,3.1,1.5,6,4.1,7.8c-1.9,0.6-3.6,1.6-5.2,2.9c-1.1-0.9-2.3-1.7-3.7-2.2c1.8-1.4,2.8-3.6,2.8-5.8c0-4.1-3.4-7.5-7.5-7.5
		s-7.5,3.4-7.5,7.5c0,2.3,1,4.4,2.8,5.8c-5,1.9-8.3,6.7-8.3,12.1v0.8c0,0.2,0.1,0.3,0.3,0.3h15c-0.1,0.6-0.1,1.2-0.1,1.8v0.9
		c0,3.8,3.1,7,7,7h19.4c3.8,0,7-3.1,7-7v-0.9c0-0.6,0-1.2-0.1-1.8h15.1c0.2,0,0.3-0.2,0.3-0.3v-0.8C82,54.2,78.7,49.4,73.7,47.5z
		 M69.1,46.6h-0.2c-2.7,0-4.9-2.3-4.9-5c0-2.7,2.2-5,5-5c2.7,0,5,2.2,5,5C73.9,44.3,71.8,46.5,69.1,46.6z M68.9,49.2h0.1
		c5.2,0,9.6,3.9,10.3,9H66c-0.7-2.5-1.9-4.8-3.6-6.7C64.2,50,66.5,49.2,68.9,49.2z M50.3,45.9h-0.8C45.9,45.7,43,42.7,43,39
		c0-3.8,3.1-6.9,6.9-6.9c3.8,0,6.9,3.1,6.9,6.9C56.8,42.7,53.9,45.7,50.3,45.9z M64,62.6v0.9c0,2.4-2,4.4-4.4,4.4H40.2
		c-2.4,0-4.4-2-4.4-4.4v-0.9c0-7.6,6.1-13.9,13.7-14.1c0.3,0,0.6,0,0.9,0C57.9,48.7,64,55,64,62.6z M30.9,49.2H31
		c2.3,0,4.6,0.8,6.4,2.3c-1.7,1.9-3,4.2-3.7,6.7H20.6C21.3,53.1,25.7,49.2,30.9,49.2z M31.1,46.6h-0.2c-2.7,0-4.9-2.3-4.9-5
		c0-2.7,2.2-5,5-5c2.7,0,5,2.2,5,5C35.9,44.3,33.7,46.5,31.1,46.6z"/>
	<g>
		<g>
			<path class="st0" d="M50,96.7C24.3,96.7,3.3,75.7,3.3,50S24.3,3.3,50,3.3c25.7,0,46.7,20.9,46.7,46.7S75.7,96.7,50,96.7z M50,7
				C26.3,7,7,26.3,7,50c0,23.7,19.3,43,43,43c23.7,0,43-19.3,43-43C93,26.3,73.7,7,50,7z"/>
		</g>
	</g>
</g>
</svg>
