<?xml version="1.0" encoding="utf-8"?>
<!-- Generator: Adobe Illustrator 25.0.0, SVG Export Plug-In . SVG Version: 6.00 Build 0)  -->
<svg version="1.1" id="Layer_1" xmlns="http://www.w3.org/2000/svg" xmlns:xlink="http://www.w3.org/1999/xlink" x="0px" y="0px"
	 viewBox="0 0 100 100" style="enable-background:new 0 0 100 100;" xml:space="preserve">
<style type="text/css">
	.st0{fill:#FFFFFF;}
</style>
<g>
	<g>
		<g>
			<path class="st0" d="M50,96.7C24.3,96.7,3.3,75.7,3.3,50S24.3,3.3,50,3.3c25.7,0,46.7,20.9,46.7,46.7S75.7,96.7,50,96.7z M50,7
				C26.3,7,7,26.3,7,50c0,23.7,19.3,43,43,43c23.7,0,43-19.3,43-43C93,26.3,73.7,7,50,7z"/>
		</g>
	</g>
	<g>
		<path class="st0" d="M71.8,64.5c-0.1-0.4-0.3-0.7-0.7-1c-0.3-0.2-0.7-0.3-1.1-0.2c-0.8,0.2-1.3,0.9-1.1,1.7c0.1,0.6,0,1.3-0.4,1.8
			c-0.2,0.3-0.8,0.8-1.6,0.8H59c-0.8,0-1.5,0.7-1.5,1.5c0,0.8,0.7,1.5,1.5,1.5h7.9c1.5,0,2.9-0.7,3.9-1.9
			C71.7,67.6,72.1,66,71.8,64.5z"/>
		<path class="st0" d="M51.6,49.7c5.9,0.5,11.1,3.7,14.4,8.6c0.2,0.3,0.5,0.6,0.9,0.6c0.4,0.1,0.8,0,1.1-0.2c0.7-0.5,0.9-1.4,0.4-2
			c-2.8-4.1-6.9-7.3-11.6-8.8l-0.5-0.2l0.4-0.3c2.9-2.2,4.7-5.7,4.7-9.3c0-6.4-5.2-11.6-11.6-11.6S38.2,31.6,38.2,38
			c0,3.7,1.7,7.1,4.7,9.3l0.4,0.3l-0.5,0.2c-2.7,0.9-5.1,2.2-7.2,4c-3.9,3.2-6.7,7.8-7.7,12.7c-0.3,1.5,0.1,3,1,4.2
			c1,1.2,2.4,1.9,3.9,1.9h7.6c0.8,0,1.5-0.7,1.5-1.5c0-0.8-0.7-1.5-1.5-1.5h-7.6c-0.9,0-1.4-0.5-1.6-0.8c-0.4-0.5-0.6-1.1-0.4-1.8
			c1.7-8.2,8.8-14.5,17.1-15.4l0.4,0l-3.4,15.6c-0.1,0.5,0,1,0.4,1.4l3.5,3.5c0.3,0.3,0.6,0.4,1,0.4c0,0,0,0,0,0
			c0.4,0,0.8-0.1,1-0.4l3.5-3.5c0.4-0.4,0.5-0.9,0.4-1.4l-3.4-15.6L51.6,49.7z M51.6,65.1L49.7,67l-1.9-1.9l1.9-8.6L51.6,65.1z
			 M49.8,29.4c4.8,0,8.7,3.9,8.7,8.7c0,4.6-3.6,8.4-8.2,8.7l-0.6,0l-0.2,0c-4.6-0.2-8.3-4-8.3-8.7C41.1,33.3,45,29.4,49.8,29.4z"/>
	</g>
</g>
</svg>
