<?xml version="1.0" encoding="UTF-8"?>
<svg id="Layer_2" data-name="Layer 2" xmlns="http://www.w3.org/2000/svg" viewBox="0 0 43.85 43.85">
  <defs>
    <style>
      .cls-1 {
        fill: #fff;
      }
    </style>
  </defs>
  <g id="Layer_1-2" data-name="Layer 1">
    <g>
      <path class="cls-1" d="M21.92,43.85C9.84,43.85,0,34.01,0,21.92S9.84,0,21.92,0s21.92,9.84,21.92,21.92-9.84,21.92-21.92,21.92ZM21.92,1.67C10.76,1.67,1.67,10.76,1.67,21.92s9.09,20.25,20.25,20.25,20.25-9.09,20.25-20.25S33.09,1.67,21.92,1.67Z"/>
      <path class="cls-1" d="M27.91,21.34l-9.11-9.11c-.32-.32-.85-.32-1.17,0-.32,.32-.32,.85,0,1.17l8.53,8.53-8.53,8.53c-.32,.32-.32,.85,0,1.17,.16,.16,.37,.24,.59,.24s.42-.08,.59-.24l9.11-9.11c.32-.32,.32-.85,0-1.17Z"/>
    </g>
  </g>
</svg>